<?xml version="1.0" encoding="UTF-8"?>
<svg id="Layer_1" xmlns="http://www.w3.org/2000/svg" version="1.1" viewBox="0 0 1080 360">
  <!-- Generator: Adobe Illustrator 30.1.0, SVG Export Plug-In . SVG Version: 2.1.1 Build 136)  -->
  <defs>
    <style>
      .st0 {
        fill: #0c0f13;
      }
    </style>
  </defs>
  <path class="st0" d="M200,40c-77.32,0-140,62.68-140,140s62.68,140,140,140,140-62.68,140-140S277.32,40,200,40ZM263.33,267.92c-42.09,11.18-85.73,10.78-126.62-.05-33.43-8.85-53.34-43.32-44.33-76.71,11.36-42.1,33.48-79.76,63.21-109.85,24.39-24.68,64.41-24.68,88.8,0,29.74,30.1,51.87,67.78,63.23,109.9,9,33.37-10.88,67.83-44.28,76.7h-.01Z"/>
  <g>
    <path class="st0" d="M457.11,251.69c-12.6-7.36-22.53-17.37-29.82-30.04-7.28-12.67-10.92-26.59-10.92-41.76s3.64-29.09,10.92-41.76,17.22-22.65,29.82-29.93c12.59-7.28,26.55-10.92,41.88-10.92s29.05,3.64,41.65,10.92c12.59,7.28,22.53,17.26,29.82,29.93,7.28,12.67,10.92,26.59,10.92,41.76s-3.64,29.1-10.92,41.76c-7.28,12.67-17.22,22.69-29.82,30.04-12.6,7.36-26.48,11.04-41.65,11.04s-29.29-3.68-41.88-11.04h0ZM525.74,227.79c8.12-4.93,14.6-11.61,19.46-20.03,4.85-8.42,7.28-17.71,7.28-27.88s-2.47-19.65-7.4-27.99c-4.93-8.34-11.49-14.94-19.69-19.8-8.19-4.85-17-7.28-26.4-7.28s-18.66,2.47-26.86,7.4c-8.19,4.93-14.64,11.57-19.35,19.92s-7.06,17.6-7.06,27.77,2.39,19.65,7.17,27.99c4.78,8.35,11.27,14.99,19.46,19.92s17.07,7.4,26.63,7.4,18.62-2.46,26.74-7.4l.02-.02h0Z"/>
    <path class="st0" d="M609.61,258.86c-.76-.76-1.14-1.89-1.14-3.41V104.55c0-3.03,1.52-4.55,4.55-4.55h60.77c10.77,0,20.33,2.2,28.68,6.6,8.34,4.4,14.75,10.58,19.23,18.55,4.47,7.97,6.71,17.18,6.71,27.65s-2.35,19.92-7.06,27.43c-4.7,7.51-11.23,13.31-19.57,17.41l27.77,56.9c.76,1.67.76,3,0,3.98-.76.99-1.97,1.48-3.64,1.48h-22.53c-2.43,0-4.25-1.14-5.46-3.41l-23.67-51.21c-3.64.15-6.37.23-8.19.23h-28.91v49.84c0,3.04-1.52,4.55-4.55,4.55h-19.57c-1.52,0-2.66-.38-3.41-1.14h-.01ZM691.54,172.49c5.16-4.93,7.74-11.49,7.74-19.69s-2.62-14.68-7.85-19.46c-5.24-4.78-12.03-7.17-20.37-7.17h-33.91v53.71h33.91c8.5,0,15.32-2.46,20.48-7.4h0Z"/>
    <path class="st0" d="M785.54,255.45V126.85h-43.47c-3.04,0-4.55-1.52-4.55-4.55v-17.75c0-3.03,1.52-4.55,4.55-4.55h115.39c1.52,0,2.65.38,3.41,1.14.76.76,1.14,1.9,1.14,3.41v17.75c0,3.04-1.52,4.55-4.55,4.55h-43.02v128.59c0,3.04-1.52,4.55-4.55,4.55h-19.8c-3.04,0-4.55-1.52-4.55-4.55h0Z"/>
    <path class="st0" d="M885.23,258.86c-.76-.76-1.14-1.89-1.14-3.41V104.55c0-3.03,1.52-4.55,4.55-4.55h19.57c3.03,0,4.55,1.52,4.55,4.55v58.49h78.29v-58.49c0-3.03,1.51-4.55,4.55-4.55h19.8c1.52,0,2.65.38,3.41,1.14.76.76,1.14,1.9,1.14,3.41v150.9c0,1.52-.38,2.66-1.14,3.41-.76.76-1.9,1.14-3.41,1.14h-19.8c-3.04,0-4.55-1.52-4.55-4.55v-64.87h-78.29v64.87c0,3.04-1.52,4.55-4.55,4.55h-19.57c-1.52,0-2.66-.38-3.41-1.14h0Z"/>
  </g>
</svg>