<?xml version="1.0" encoding="UTF-8"?>
<svg id="Layer_1" xmlns="http://www.w3.org/2000/svg" version="1.1" viewBox="0 0 1080 360">
  <!-- Generator: Adobe Illustrator 30.1.0, SVG Export Plug-In . SVG Version: 2.1.1 Build 136)  -->
  <defs>
    <style>
      .st0 {
        fill: #647f5d;
      }

      .st1 {
        fill: #fff;
      }
    </style>
  </defs>
  <path class="st0" d="M200,40c-77.32,0-140,62.68-140,140s62.68,140,140,140,140-62.68,140-140S277.32,40,200,40ZM266.03,271.67c-43.88,11.65-89.38,11.24-132.01-.05-34.85-9.23-55.61-45.17-46.21-79.97,11.85-43.89,34.9-83.16,65.9-114.52,25.42-25.73,67.15-25.73,92.58,0,31.01,31.38,54.08,70.67,65.92,114.58,9.38,34.79-11.34,70.72-46.17,79.97h-.01Z"/>
  <g>
    <path class="st1" d="M457.57,251.46c-12.6-7.36-22.53-17.33-29.82-29.93-7.28-12.59-10.92-26.48-10.92-41.65s3.64-29.05,10.92-41.65c7.28-12.59,17.22-22.57,29.82-29.93,12.59-7.36,26.55-11.04,41.88-11.04s28.87,3.68,41.54,11.04,22.65,17.34,29.93,29.93c7.28,12.6,10.92,26.48,10.92,41.65s-3.61,29.06-10.81,41.65c-7.21,12.6-17.15,22.57-29.82,29.93s-26.59,11.04-41.76,11.04-29.29-3.68-41.88-11.04h0ZM528.13,230.98c8.8-5.23,15.82-12.29,21.05-21.17s7.85-18.78,7.85-29.7-2.62-20.9-7.85-29.93c-5.24-9.03-12.25-16.12-21.05-21.28s-18.36-7.74-28.68-7.74-19.88,2.58-28.68,7.74c-8.8,5.16-15.78,12.22-20.94,21.17s-7.74,18.89-7.74,29.82,2.58,20.86,7.74,29.82,12.14,16.05,20.94,21.28,18.36,7.85,28.68,7.85,19.88-2.62,28.68-7.85h0Z"/>
    <path class="st1" d="M612.11,258.86c-.76-.76-1.14-1.9-1.14-3.41V104.55c0-3.03,1.51-4.55,4.55-4.55h59.4c10.77,0,20.26,2.16,28.45,6.49,8.19,4.32,14.53,10.43,19,18.32s6.71,17.07,6.71,27.54-2.43,20.03-7.28,27.77c-4.86,7.74-11.61,13.58-20.26,17.53l27.31,56.9c.76,1.67.76,3,0,3.98-.76.99-1.97,1.48-3.64,1.48h-17.98c-2.43,0-4.25-1.14-5.46-3.41l-24.13-52.58c-4.1.31-7.13.46-9.1.46h-33v50.98c0,3.04-1.52,4.55-4.55,4.55h-15.48c-1.52,0-2.66-.38-3.41-1.14h0ZM695.52,174.19c5.84-5.46,8.76-12.75,8.76-21.85s-2.92-16.54-8.76-21.85-13.47-7.97-22.87-7.97h-37.1v59.86h37.1c9.41,0,17.03-2.73,22.87-8.19h0Z"/>
    <path class="st1" d="M788.04,255.45V122.98h-44.84c-3.04,0-4.55-1.52-4.55-4.55v-13.88c0-3.03,1.52-4.55,4.55-4.55h114.48c1.51,0,2.65.38,3.41,1.14.76.76,1.14,1.9,1.14,3.41v13.88c0,3.04-1.52,4.55-4.55,4.55h-44.84v132.46c0,3.04-1.52,4.55-4.55,4.55h-15.71c-3.04,0-4.55-1.52-4.55-4.55h.01Z"/>
    <path class="st1" d="M887.05,258.86c-.76-.76-1.14-1.9-1.14-3.41V104.55c0-3.03,1.51-4.55,4.55-4.55h15.48c3.03,0,4.55,1.52,4.55,4.55v60.09h84.67v-60.09c0-3.03,1.51-4.55,4.55-4.55h15.7c1.52,0,2.65.38,3.41,1.14.76.76,1.14,1.9,1.14,3.41v150.9c0,1.52-.38,2.66-1.14,3.41-.76.76-1.9,1.14-3.41,1.14h-15.7c-3.04,0-4.55-1.52-4.55-4.55v-67.37h-84.67v67.37c0,3.04-1.52,4.55-4.55,4.55h-15.48c-1.52,0-2.66-.38-3.41-1.14h0Z"/>
  </g>
</svg>